<svg xmlns="http://www.w3.org/2000/svg" viewBox="0 0 64 64" id="construction-planing"><path fill="#d8d9da" d="M43.81 12H40c0-2.21-.9-4.21-2.34-5.66a8.014 8.014 0 0 0-11.32 0A8.014 8.014 0 0 0 24 12h-3.81c-1.21 0-2.19.98-2.19 2.19V24h28v-9.81c0-1.21-.98-2.19-2.19-2.19zM32 16c-2.21 0-4-1.79-4-4s1.79-4 4-4 4 1.79 4 4-1.79 4-4 4z"></path><path d="M46 25H18c-.55 0-1-.45-1-1v-9.81c0-1.76 1.43-3.19 3.19-3.19h2.86c.22-2.02 1.12-3.9 2.58-5.36C27.34 3.93 29.6 3 32 3s4.66.93 6.36 2.63A8.98 8.98 0 0 1 40.94 11h2.86c1.76 0 3.19 1.43 3.19 3.19V24c.01.55-.44 1-.99 1zm-27-2h26v-8.81c0-.66-.53-1.19-1.19-1.19H40c-.55 0-1-.45-1-1 0-1.86-.73-3.62-2.05-4.96C35.62 5.73 33.86 5 32 5s-3.62.73-4.96 2.05A7.026 7.026 0 0 0 25 12c0 .55-.45 1-1 1h-3.81c-.66 0-1.19.53-1.19 1.19V23zm13-6c-2.76 0-5-2.24-5-5s2.24-5 5-5 5 2.24 5 5-2.24 5-5 5zm0-8c-1.65 0-3 1.35-3 3s1.35 3 3 3 3-1.35 3-3-1.35-3-3-3z"></path><path fill="#cc862c" d="M60 18v42H4V18h14v6h28v-6z"></path><path d="M60 61H4c-.55 0-1-.45-1-1V18c0-.55.45-1 1-1h14c.55 0 1 .45 1 1v5h26v-5c0-.55.45-1 1-1h14c.55 0 1 .45 1 1v42c0 .55-.45 1-1 1zM5 59h54V19H47v5c0 .55-.45 1-1 1H18c-.55 0-1-.45-1-1v-5H5v40z"></path><path fill="#0065b2" d="M56 22v34H8V22h10v2h28v-2z"></path><path d="M56 57H8c-.55 0-1-.45-1-1V22c0-.55.45-1 1-1h10c.55 0 1 .45 1 1v1h26v-1c0-.55.45-1 1-1h10c.55 0 1 .45 1 1v34c0 .55-.45 1-1 1zM9 55h46V23h-8v1c0 .55-.45 1-1 1H18c-.55 0-1-.45-1-1v-1H9v32z"></path><path fill="#fff" d="M28 53h-9c-.55 0-1-.45-1-1V28c0-.55.45-1 1-1h9c.55 0 1 .45 1 1v24c0 .55-.45 1-1 1zm-8-2h7V29h-7v22z"></path><path fill="#fff" d="M36 53h-8c-.55 0-1-.45-1-1V34c0-.55.45-1 1-1h8c.55 0 1 .45 1 1v18c0 .55-.45 1-1 1zm-7-2h6V35h-6v16z"></path><path fill="#fff" d="M33 35h-5c-.55 0-1-.45-1-1v-4c0-.55.45-1 1-1h5c.55 0 1 .45 1 1v4c0 .55-.45 1-1 1zm-4-2h3v-2h-3v2zM14 53c-.55 0-1-.45-1-1V28c0-.55.45-1 1-1s1 .45 1 1v24c0 .55-.45 1-1 1z"></path><path fill="#fff" d="M16 29h-4c-.55 0-1-.45-1-1s.45-1 1-1h4c.55 0 1 .45 1 1s-.45 1-1 1zm0 24h-4c-.55 0-1-.45-1-1s.45-1 1-1h4c.55 0 1 .45 1 1s-.45 1-1 1zm25 0c-.55 0-1-.45-1-1V34c0-.55.45-1 1-1s1 .45 1 1v18c0 .55-.45 1-1 1z"></path><path fill="#fff" d="M43 35h-4c-.55 0-1-.45-1-1s.45-1 1-1h4c.55 0 1 .45 1 1s-.45 1-1 1zm0 18h-4c-.55 0-1-.45-1-1s.45-1 1-1h4c.55 0 1 .45 1 1s-.45 1-1 1zm0-25h-6c-.55 0-1-.45-1-1s.45-1 1-1h6c.55 0 1 .45 1 1s-.45 1-1 1zm0 3h-6c-.55 0-1-.45-1-1s.45-1 1-1h6c.55 0 1 .45 1 1s-.45 1-1 1zm9 19h-6c-.55 0-1-.45-1-1s.45-1 1-1h6c.55 0 1 .45 1 1s-.45 1-1 1zm-3-3h-3c-.55 0-1-.45-1-1s.45-1 1-1h3c.55 0 1 .45 1 1s-.45 1-1 1zm0-3h-3c-.55 0-1-.45-1-1s.45-1 1-1h3c.55 0 1 .45 1 1s-.45 1-1 1zm3 9h-6c-.55 0-1-.45-1-1s.45-1 1-1h6c.55 0 1 .45 1 1s-.45 1-1 1zm-3-19c-2.21 0-4-1.79-4-4s1.79-4 4-4 4 1.79 4 4-1.79 4-4 4zm0-6c-1.1 0-2 .9-2 2s.9 2 2 2 2-.9 2-2-.9-2-2-2zm-24 5h-3c-.55 0-1-.45-1-1s.45-1 1-1h3c.55 0 1 .45 1 1s-.45 1-1 1zm0 4h-3c-.55 0-1-.45-1-1s.45-1 1-1h3c.55 0 1 .45 1 1s-.45 1-1 1zM25 41h-3c-.55 0-1-.45-1-1s.45-1 1-1h3c.55 0 1 .45 1 1s-.45 1-1 1zM25 45h-3c-.55 0-1-.45-1-1s.45-1 1-1h3c.55 0 1 .45 1 1s-.45 1-1 1zM25 49h-3c-.55 0-1-.45-1-1s.45-1 1-1h3c.55 0 1 .45 1 1s-.45 1-1 1z"></path></svg>