<svg xmlns="http://www.w3.org/2000/svg" viewBox="0 0 64 64" id="construction-clipboard" style={{ stroke: 'white', strokeWidth: 2, fill: 'none' }}><path d="M12,57H35v2H12a5,5,0,0,1-5-5V10a5,5,0,0,1,5-5h6V7H12a3,3,0,0,0-3,3V54A3,3,0,0,0,12,57ZM47,10V25.08h2V10a5,5,0,0,0-5-5H38V7h6A3,3,0,0,1,47,10ZM11,10V54a1,1,0,0,0,1,1H32V53H13V11h5V9H12A1,1,0,0,0,11,10ZM45,24.92V10a1,1,0,0,0-1-1H38v2h5V24.92ZM19,11V5a1,1,0,0,1,1-1H36a1,1,0,0,1,1,1v6a1,1,0,0,1-1,1H20A1,1,0,0,1,19,11Zm2-1H35V6H21Zm5-1h4V7H26Zm14,6H16v2H40Zm0,5H16v2H40Zm0,5H16v2H40ZM30,30H16v2H30Zm0,5H16v2H30ZM58,48H54.48a1,1,0,0,0-.95.67,7.35,7.35,0,0,1-.32.77,1,1,0,0,0,.2,1.14l2.49,2.49L53.07,55.9l-2.49-2.49a1,1,0,0,0-1.14-.2,7.35,7.35,0,0,1-.77.32,1,1,0,0,0-.67.95V58H44V54.48a1,1,0,0,0-.67-.95,7.35,7.35,0,0,1-.77-.32,1,1,0,0,0-1.14.2L38.93,55.9,36.1,53.07l2.49-2.49a1,1,0,0,0,.2-1.14,7.35,7.35,0,0,1-.32-.77,1,1,0,0,0-.95-.67H34V45.94H32V49a1,1,0,0,0,1,1h3.34L34,52.36a1,1,0,0,0,0,1.42L38.22,58a1,1,0,0,0,1.42,0L42,55.66V59a1,1,0,0,0,1,1h6a1,1,0,0,0,1-1V55.66L52.36,58a1,1,0,0,0,1.42,0L58,53.78a1,1,0,0,0,0-1.42L55.66,50H59a1,1,0,0,0,1-1V46H58ZM46,52a6,6,0,0,0,6-6H50a4,4,0,0,1-8,0H40A6,6,0,0,0,46,52ZM60,40v4a1,1,0,0,1-1,1H33a1,1,0,0,1-1-1V40a1,1,0,0,1,1-1h1a10.92,10.92,0,0,1,8-9.59,4,4,0,0,1,7.88,0A10.89,10.89,0,0,1,58,39h1A1,1,0,0,1,60,40Zm-24-1H55.94A9,9,0,0,0,50,31.54V35H48V30a2,2,0,0,0-4,0v5H42V31.54A8.93,8.93,0,0,0,36.05,39Zm22,2H34v2H58ZM29,40a1,1,0,0,1,1,1v8a1,1,0,0,1-1,1H17a1,1,0,0,1-1-1V41a1,1,0,0,1,1-1Zm-1,2H20.3L28,47.13ZM18,48h7.7L18,42.87Z" data-name="18 Clipboard Document Setting, Clipboard,Construction"></path></svg>